<?xml version="1.0" encoding="UTF-8" standalone="no"?>
<!DOCTYPE svg PUBLIC "-//W3C//DTD SVG 1.1//EN"
 "http://www.w3.org/Graphics/SVG/1.1/DTD/svg11.dtd">
<!-- Generated by graphviz version 2.47.0 (20210316.0004)
 -->
<!-- Title: dependencies Pages: 1 -->
<svg width="896pt" height="284pt"
 viewBox="0.00 0.00 896.00 284.00" xmlns="http://www.w3.org/2000/svg" xmlns:xlink="http://www.w3.org/1999/xlink">
<g id="graph0" class="graph" transform="scale(1 1) rotate(0) translate(4 280)">
<title>dependencies</title>
<polygon fill="white" stroke="transparent" points="-4,4 -4,-280 892,-280 892,4 -4,4"/>
<text text-anchor="start" x="423.01" y="-42.4" font-family="Times-12" font-weight="bold" font-size="14.00">Legend</text>
<polygon fill="#ffffb3" stroke="transparent" points="210,-10 210,-30 230,-30 230,-10 210,-10"/>
<text text-anchor="start" x="233.63" y="-15.4" font-family="Times-12" font-size="14.00"> &#160;Declarations</text>
<polygon fill="#8dd3c7" stroke="transparent" points="323,-10 323,-30 343,-30 343,-10 323,-10"/>
<text text-anchor="start" x="346.73" y="-15.4" font-family="Times-12" font-size="14.00"> &#160;Module</text>
<polygon fill="#80b1d3" stroke="transparent" points="409,-10 409,-30 429,-30 429,-10 409,-10"/>
<text text-anchor="start" x="432.78" y="-15.4" font-family="Times-12" font-size="14.00"> &#160;Bootstrap</text>
<polygon fill="#fdb462" stroke="transparent" points="506,-10 506,-30 526,-30 526,-10 506,-10"/>
<text text-anchor="start" x="529.67" y="-15.4" font-family="Times-12" font-size="14.00"> &#160;Providers</text>
<polygon fill="#fb8072" stroke="transparent" points="602,-10 602,-30 622,-30 622,-10 602,-10"/>
<text text-anchor="start" x="625.73" y="-15.4" font-family="Times-12" font-size="14.00"> &#160;Exports</text>
<g id="clust1" class="cluster">
<title>cluster_AppModule</title>
<polygon fill="none" stroke="black" stroke-dasharray="1,5" points="8,-70 8,-268 880,-268 880,-70 8,-70"/>
</g>
<g id="clust8" class="cluster">
<title>cluster_AppModule_imports</title>
<polygon fill="none" stroke="black" points="728,-78 728,-130 872,-130 872,-78 728,-78"/>
</g>
<g id="clust10" class="cluster">
<title>cluster_AppModule_bootstrap</title>
<polygon fill="none" stroke="black" points="392,-208 392,-260 516,-260 516,-208 392,-208"/>
</g>
<g id="clust2" class="cluster">
<title>cluster_AppModule_declarations</title>
<polygon fill="none" stroke="black" points="16,-78 16,-130 720,-130 720,-78 16,-78"/>
</g>
<!-- AppComponent -->
<g id="node1" class="node">
<title>AppComponent</title>
<polygon fill="#ffffb3" stroke="black" points="711.94,-122 606.06,-122 606.06,-86 711.94,-86 711.94,-122"/>
<text text-anchor="middle" x="659" y="-99.8" font-family="Times,serif" font-size="14.00">AppComponent</text>
</g>
<!-- AppModule -->
<g id="node6" class="node">
<title>AppModule</title>
<polygon fill="#8dd3c7" stroke="black" points="495.66,-187 492.66,-191 471.66,-191 468.66,-187 412.34,-187 412.34,-151 495.66,-151 495.66,-187"/>
<text text-anchor="middle" x="454" y="-164.8" font-family="Times,serif" font-size="14.00">AppModule</text>
</g>
<!-- AppComponent&#45;&gt;AppModule -->
<g id="edge1" class="edge">
<title>AppComponent&#45;&gt;AppModule</title>
<path fill="none" stroke="black" d="M659,-122.02C659,-139.37 659,-163 659,-163 659,-163 505.98,-163 505.98,-163"/>
<polygon fill="black" stroke="black" points="505.98,-159.5 495.98,-163 505.98,-166.5 505.98,-159.5"/>
</g>
<!-- ContactComponent -->
<g id="node2" class="node">
<title>ContactComponent</title>
<polygon fill="#ffffb3" stroke="black" points="588.38,-122 463.62,-122 463.62,-86 588.38,-86 588.38,-122"/>
<text text-anchor="middle" x="526" y="-99.8" font-family="Times,serif" font-size="14.00">ContactComponent</text>
</g>
<!-- ContactComponent&#45;&gt;AppModule -->
<g id="edge2" class="edge">
<title>ContactComponent&#45;&gt;AppModule</title>
<path fill="none" stroke="black" d="M479.69,-122.11C479.69,-122.11 479.69,-140.99 479.69,-140.99"/>
<polygon fill="black" stroke="black" points="476.19,-140.99 479.69,-150.99 483.19,-140.99 476.19,-140.99"/>
</g>
<!-- ProductComponent -->
<g id="node3" class="node">
<title>ProductComponent</title>
<polygon fill="#ffffb3" stroke="black" points="445.38,-122 320.62,-122 320.62,-86 445.38,-86 445.38,-122"/>
<text text-anchor="middle" x="383" y="-99.8" font-family="Times,serif" font-size="14.00">ProductComponent</text>
</g>
<!-- ProductComponent&#45;&gt;AppModule -->
<g id="edge3" class="edge">
<title>ProductComponent&#45;&gt;AppModule</title>
<path fill="none" stroke="black" d="M428.81,-122.11C428.81,-122.11 428.81,-140.99 428.81,-140.99"/>
<polygon fill="black" stroke="black" points="425.31,-140.99 428.81,-150.99 432.31,-140.99 425.31,-140.99"/>
</g>
<!-- ProductListComponent -->
<g id="node4" class="node">
<title>ProductListComponent</title>
<polygon fill="#ffffb3" stroke="black" points="302.16,-122 155.84,-122 155.84,-86 302.16,-86 302.16,-122"/>
<text text-anchor="middle" x="229" y="-99.8" font-family="Times,serif" font-size="14.00">ProductListComponent</text>
</g>
<!-- ProductListComponent&#45;&gt;AppModule -->
<g id="edge4" class="edge">
<title>ProductListComponent&#45;&gt;AppModule</title>
<path fill="none" stroke="black" d="M229,-122.02C229,-139.37 229,-163 229,-163 229,-163 402.21,-163 402.21,-163"/>
<polygon fill="black" stroke="black" points="402.21,-166.5 412.21,-163 402.21,-159.5 402.21,-166.5"/>
</g>
<!-- StockComponent -->
<g id="node5" class="node">
<title>StockComponent</title>
<polygon fill="#ffffb3" stroke="black" points="137.72,-122 24.28,-122 24.28,-86 137.72,-86 137.72,-122"/>
<text text-anchor="middle" x="81" y="-99.8" font-family="Times,serif" font-size="14.00">StockComponent</text>
</g>
<!-- StockComponent&#45;&gt;AppModule -->
<g id="edge5" class="edge">
<title>StockComponent&#45;&gt;AppModule</title>
<path fill="none" stroke="black" d="M81,-122.28C81,-143.32 81,-175 81,-175 81,-175 402.3,-175 402.3,-175"/>
<polygon fill="black" stroke="black" points="402.3,-178.5 412.3,-175 402.3,-171.5 402.3,-178.5"/>
</g>
<!-- AppComponent  -->
<g id="node8" class="node">
<title>AppComponent </title>
<polygon fill="#80b1d3" stroke="black" points="508.44,-252 399.56,-252 399.56,-216 508.44,-216 508.44,-252"/>
<text text-anchor="middle" x="454" y="-229.8" font-family="Times,serif" font-size="14.00">AppComponent </text>
</g>
<!-- AppModule&#45;&gt;AppComponent  -->
<g id="edge7" class="edge">
<title>AppModule&#45;&gt;AppComponent </title>
<path fill="none" stroke="black" stroke-dasharray="1,5" d="M454,-187.11C454,-187.11 454,-205.99 454,-205.99"/>
<polygon fill="black" stroke="black" points="450.5,-205.99 454,-215.99 457.5,-205.99 450.5,-205.99"/>
</g>
<!-- AppRoutingModule -->
<g id="node7" class="node">
<title>AppRoutingModule</title>
<polygon fill="#8dd3c7" stroke="black" points="864.27,-122 861.27,-126 840.27,-126 837.27,-122 735.73,-122 735.73,-86 864.27,-86 864.27,-122"/>
<text text-anchor="middle" x="800" y="-99.8" font-family="Times,serif" font-size="14.00">AppRoutingModule</text>
</g>
<!-- AppRoutingModule&#45;&gt;AppModule -->
<g id="edge6" class="edge">
<title>AppRoutingModule&#45;&gt;AppModule</title>
<path fill="none" stroke="black" d="M800,-122.28C800,-143.32 800,-175 800,-175 800,-175 505.74,-175 505.74,-175"/>
<polygon fill="black" stroke="black" points="505.74,-171.5 495.74,-175 505.74,-178.5 505.74,-171.5"/>
</g>
</g>
</svg>
